<svg width="374" height="52" xmlns="http://www.w3.org/2000/svg"><path d="M32.84523 16.173482l-.0647834 34.151177h-1.6843708V16.2379182c0-4.038021-1.4900054-7.4745831-4.4700609-10.3097893-2.9800555-2.8352063-6.5215176-4.2527881-10.6244926-4.2527881-3.8870289 0-7.24493959 1.342407-10.07383285 4.0272614-2.82889326 2.6848544-4.24331868 5.9388492-4.24331868 9.7620818v9.2143742h.7774019v-8.8921933c0-3.651402 1.32804829-6.7765256 3.98418471-9.3754647 2.65613642-2.598939 5.86288712-3.898389 9.62034842-3.898389 3.8870289 0 7.2233454 1.342407 10.0090494 4.0272614 2.7857041 2.6848544 4.1785352 5.9173706 4.1785352 9.6976456V50.324659h-1.2956698V16.2379182c0-3.4366136-1.2632655-6.3469521-3.7898343-8.7311028-2.5265688-2.3841507-5.538971-3.5762082-9.037297-3.5762082-3.3255692 0-6.18681141 1.1276219-8.58381257 3.3828996-2.39700116 2.2552777-3.59548377 5.0152666-3.59548377 8.2800496v9.0855018h.71261841v-9.5365551c0-2.9640793 1.13369976-5.4448475 3.40113329-7.4423792 2.26743354-1.9975317 4.95592154-2.9962825 8.06554464-2.9962825 3.28238 0 6.1004337 1.1276219 8.4542456 3.3828996 2.353812 2.2552777 3.5307003 4.9937881 3.5307003 8.2156134V50.324659h-1.1661029V16.2379182c0-2.8781639-1.0581197-5.3481929-3.174391-7.4101611s-4.6428022-3.0929368-7.5796685-3.0929368c-2.7641094 0-5.1826689.9235761-7.25575101 2.7707559-2.07308209 1.8471798-3.10960758 4.1239022-3.10960758 6.8302354l.06478349 9.3432466h.97175237v-9.2788104c0-2.4485872.92855409-4.5105244 2.78569012-6.1858736 1.85713601-1.6753491 4.05975271-2.5130111 6.60791611-2.5130111 2.6345418 0 4.9127385.9343153 6.8346583 2.802974 1.9219199 1.8686586 2.8828654 4.1131632 2.8828654 6.7335811V50.324659h-1.1661029V16.2379182c0-2.3197142-.8421769-4.3386944-2.5265561-6.0570012-1.6843792-1.7183068-3.7142416-2.5774474-6.0896482-2.5774474-2.2890281 0-4.2649049.7410087-5.9276894 2.2230484-1.66278463 1.4820396-2.49416445 3.339931-2.49416445 5.5737298v9.2788104h1.03653586v-9.2788104c0-1.8471798.74500269-3.4258505 2.23503049-4.7360594 1.4900277-1.310209 3.2283673-1.9653036 5.215071-1.9653036 2.0730821 0 3.8654074.7302694 5.3770298 2.1908302 1.5116223 1.4605608 2.2674222 3.2432774 2.2674222 5.3482032V50.324659h-.7126184V16.1090458c0-1.8471798-.691017-3.4151112-2.0730718-4.7038413-1.3820547-1.2887302-3.0016258-1.9330855-4.8587618-1.9330855-1.7275684 0-3.2607624.5584413-4.5996279 1.6753407-1.3388655 1.1168995-2.00828821 2.5130028-2.00828821 4.1883519v9.3432466H10.818843v-9.4076827c0-1.3316878.5506542-2.4163527 1.6519791-3.2540273 1.1013248-.8376746 2.3861845-1.2565056 3.8546177-1.2565056 1.4684331 0 2.76409.5369629 3.8870095 1.6109046 1.1229194 1.0739418 1.6843707 2.3626526 1.6843707 3.866171V50.324659h-.6478349V16.1090458c0-1.3316877-.4966684-2.4485704-1.4900203-3.3506815-.9933518-.9021111-2.159443-1.3531598-3.4983085-1.3531598-1.2524871 0-2.3537954.3866132-3.3039581 1.1598513-.9501626.773238-1.4252368 1.7182926-1.4252368 2.835192v9.2788104h1.4252368v-8.8277571c0-.8591534.3239143-1.5894228.9717524-2.1908302.6478382-.6014074 1.403638-.9021066 2.2674222-.9021066.9501626 0 1.7923396.3221777 2.5265562.9665428.7342165.644365 1.1013193 1.43907 1.1013193 2.3841387V50.324659h-.5830514V38.0173482h-5.6361637V50.324659h-.647835V37.3085502h6.1544317v-1.2887237h-7.5796685V50.324659h-.7126184V35.1821561h8.2922869V34.086741H9.65274019v16.237918h-.84218538l.06478349-17.2044607h10.2357916v-.9021066H7.77401895V50.324659h-.90696888V31.2515489H19.1111299v-.7732342H5.8952977V50.324659H4.66441137V29.1895911H19.1759134v-.7732342H3.95179296V50.324659H2.46177267V27.063197H19.1759134v-.708798H1.68437077v23.97026H0V15.4002478C0 11.1474385 1.58717966 7.528309 4.7615866 4.5427509 7.93599355 1.5571928 11.7041956.0644362 16.0663058.0644362c4.5348671 0 8.4650262 1.5679314 11.7905954 4.7038414C31.1824704 7.9041875 32.84523 11.7058843 32.84523 16.173482zm-13.6693166 8.5055762v-8.6988847c0-.7302804-.2915228-1.342418-.8745771-1.8364312-.5830544-.4940133-1.2848685-.7410162-2.1054635-.7410162-.6910274 0-1.3064644.2040459-1.8463295.6121438-.5398651.4080979-.8097936.9343214-.8097936 1.5786865v9.0855018h5.6361637zm48.1730041 12.8228005H50.4404263V1.1598513h.5830514v35.6976456h16.3254398v.6443618zm0 1.9975217H48.302571V1.1598513h.647835v37.6951673h18.3985115v.6443618zm0 2.1263941H46.2294993V1.1598513h.8421854v39.5638166h20.2772328v.9021066zm0 1.9330855H44.2859946V1.1598513h.9069689V42.527881h22.155954v1.030979zm0 2.0619578H42.0833559V1.1598513h1.2308863v43.3011152l23.9698918-.0644361.0647835 1.2242874zm0 2.1908302H39.9455007V1.1598513h1.4900203V46.394052h25.848613l.0647835 1.417596zm-.0647835 2.513011H37.354161V1.1598513h1.7491543V48.584882H67.284134v1.739777zm17.8932002.064436h-.5830514V1.3531599h.5830514V50.389095zm-2.0082882 0h-.7126184V1.3531599h.7126184V50.389095zm-1.8787213 0h-.8421853V1.3531599h.8421853V50.389095zm-1.8787212 0h-.9069689V1.3531599h.9069689V50.389095zm-1.9435047 0h-1.1661029V1.3531599h1.1661029V50.389095zm-1.8787213 0h-1.4900203V1.3531599h1.4900203V50.389095zm-2.2674222 0h-1.6843707V1.3531599h1.6843707V50.389095zm32.5860957-2.706319c3.411948 0 6.337973-1.1920578 8.778163-3.5762085 2.440191-2.3841507 3.660268-5.2515322 3.660268-8.6022304 0-3.264783-1.014931-6.0677289-3.044824-8.408922-2.029893-2.341193-4.664396-3.6836001-7.903586-4.0272614l-1.425237-.1288724c-1.857136-.2147884-3.455113-.9021008-4.793978-2.0619579-1.338866-1.1598571-2.0082887-2.620396-2.0082887-4.3816605 0-1.8901374.6586256-3.5332437 1.9758967-4.929368 1.317271-1.3961243 2.90445-2.0941759 4.761586-2.0941759 1.64119 0 3.098804.5154843 4.372886 1.5464684 1.274082 1.030984 2.062273 2.2982163 2.364597 3.8017348.086379.6873227.107973 1.1813285.064784 1.4820322h-1.29567l-.259134-1.2887237c-.388703-1.3316878-1.036531-2.3733956-1.943505-3.1251549-.906973-.7517592-2.029876-1.1276332-3.368741-1.1276332-1.468433 0-2.720902.5369629-3.757443 1.6109046-1.036541 1.0739418-1.554803 2.3626526-1.554803 3.866171 0 1.4176031.496668 2.6203999 1.49002 3.6084263.993352.9880264 2.24582 1.5464677 3.757442 1.6753408l1.749155.1288723c3.498326 0 6.402757 1.3531463 8.713379 4.0594796 2.310623 2.7063332 3.465917 5.9066316 3.465917 9.6009913 0 3.780275-1.328048 7.0342697-3.984185 9.7620818-2.656136 2.7278117-5.884481 4.0916977-9.685132 4.0916977-3.541515 0-6.6510913-1.149101-9.3288223-3.4473359-2.6777311-2.2982353-4.1893308-5.1011813-4.5348444-8.4089219l-.0647835-1.8686493h1.4252368v1.8686493c.3023245 2.8352062 1.651967 5.2730175 4.0489682 7.3135068 2.3970011 2.0404893 5.1718662 3.060719 8.3246782 3.060719zm.194351 2.319702c4.016596 0 7.43929-1.449799 10.268183-4.3494421 2.828893-2.8996427 4.243319-6.3469441 4.243319-10.3420074 0-3.651402-1.241671-6.8624397-3.725051-9.6332094-2.483379-2.7707698-5.582159-4.3494405-9.296431-4.7360595l-1.49002-.1288724c-1.338866-.128873-2.472565-.590661-3.401133-1.3853779-.928568-.7947169-1.392845-1.7934678-1.392845-2.9962825 0-1.3316878.442682-2.4593097 1.328061-3.3828997.885379-.9235899 1.97589-1.3853779 3.271566-1.3853779 1.079731 0 2.06227.3543955 2.947649 1.063197.885379.7088016 1.414439 1.5357243 1.587196 2.4807931.129567.3436613.151162.7087961.064783 1.0954151h-1.749154c.043189-.257746.021595-.6014022-.064783-1.0309789-.388703-1.2887301-1.295663-1.9330855-2.720907-1.9330855-.777406 0-1.457626.2684814-2.04068.8054523-.583054.5369708-.874577 1.1920655-.874577 1.9653035 0 .7732381.291523 1.4498113.874577 2.0297398.583054.5799286 1.263274.8698885 2.04068.8698885l1.813938.1933086c4.189353.3436613 7.676829 2.0834209 10.462533 5.2193308 2.785705 3.1359099 4.178536 6.7443001 4.178536 10.8252788 0 4.4675977-1.597977 8.3337301-4.793979 11.598513-3.196001 3.2647827-7.039783 4.8971497-11.531461 4.8971497-4.4053 0-8.2382845-1.417582-11.4990698-4.252788-3.2607854-2.8352061-4.8911536-6.3576822-4.8911536-10.5675339l-.0647835-1.4820322h1.6843708l.129567 2.126394c.4750813 3.6084443 2.1378409 6.5832184 4.9883288 8.9244114 2.8504879 2.3411927 6.0680353 3.5117717 9.6527403 3.5117717zm-.064784-9.9876081c1.295677 0 2.396985-.4725273 3.303958-1.417596.906974-.9450688 1.360454-2.0619515 1.360454-3.3506816 0-1.2457724-.442683-2.3304373-1.328062-3.2540272-.885379-.92359-1.932701-1.385378-3.141999-1.385378l-1.166103-.0644362c-3.80065 0-7.0289955-1.4283211-9.6851319-4.2850062-2.6561364-2.856685-3.9841847-6.2180723-3.9841847-10.0842627 0-3.9521056 1.4468168-7.3027537 4.3404939-10.0520446 2.8936771-2.7492909 6.3487617-4.1239157 10.3653587-4.1239157 3.671083 0 6.813051 1.1705789 9.425998 3.511772 2.612947 2.341193 4.178532 5.3589241 4.696803 9.0532837l.129567 1.739777h-.712618l-.129567-1.6753408c-.475082-3.4795713-1.975884-6.3469528-4.502453-8.6022305-2.526569-2.2552776-5.517377-3.3828996-8.972514-3.3828996-3.757461 0-7.0074002 1.2994501-9.749915 3.8983891-2.7425149 2.5989391-4.1137517 5.7455412-4.1137517 9.4399009 0 3.6084443 1.2200769 6.7120894 3.6602672 9.3110285 2.4401904 2.598939 5.5389695 4.0916957 9.2964315 4.4783147l1.49002.1933086c1.425244.128873 2.591335.7087928 3.498308 1.7397769.906974 1.0309841 1.360454 2.2552594 1.360454 3.6728625 0 1.5035184-.52906 2.78149-1.587196 3.8339529-1.058136 1.0524629-2.342995 1.5786865-3.854618 1.5786865-1.338865 0-2.515753-.375874-3.5307-1.1276332-1.014946-.7517593-1.651978-1.7934671-1.911113-3.1251549l-.129567-1.0954151h.712619c0 .515492.107971 1.0524548.323917 1.6109046.388703.9450687.982546 1.6753381 1.781546 2.1908302.799.515492 1.716757.7732342 2.753298.7732342zm0 1.9975217c1.857136 0 3.433519-.6443554 4.729195-1.9330855 1.295677-1.2887301 1.943505-2.8781401 1.943505-4.7682776 0-1.7183068-.550654-3.189585-1.651979-4.4138786-1.101325-1.2242936-2.51575-1.9223452-4.243319-2.0941759l-2.073071-.2577448c-3.28238-.3436613-6.014057-1.6860684-8.1951121-4.0272614-2.1810551-2.3411931-3.2715663-5.144139-3.2715663-8.408922 0-3.3936559 1.2740626-6.2932552 3.822226-8.6988847 2.5481634-2.4056296 5.5497684-3.6084263 9.0049054-3.6084263 3.196001 0 5.938475 1.0309686 8.227503 3.0929368s3.627874 4.7038253 4.016577 7.9256506l.064783 1.4820322h-.842185l-.064784-1.739777c-.388703-2.7922485-1.651968-5.1226672-3.789834-6.9913259-2.137866-1.8686586-4.675194-2.8029739-7.61206-2.8029739-3.239191 0-6.024853 1.0846649-8.3570705 3.2540272-2.3322173 2.1693624-3.4983085 4.8434373-3.4983085 8.0223049 0 3.0929522 1.0041341 5.7455486 3.0124323 7.9578686 2.0082983 2.21232 4.5456267 3.4473345 7.6120607 3.7050806l1.813937.1288723c1.943515.1718307 3.573883.9772749 4.891154 2.4163569 1.317271 1.439082 1.975896 3.1466237 1.975896 5.1226766 0 2.0619682-.745002 3.8339455-2.23503 5.3159851-1.490028 1.4820396-3.271556 2.2230483-5.344638 2.2230483-1.684379 0-3.249965-.5262235-4.696803-1.5786865-1.4468388-1.0524629-2.3430014-2.437827-2.6885151-4.1561338-.1295676-.7302804-.1727562-1.3102002-.129567-1.7397769h.8421854c0 .8591534.0647828 1.5464658.1943505 2.0619578.4318921 1.3746455 1.2308802 2.4700497 2.3969892 3.2862454 1.166109.8161957 2.548143 1.2242875 4.146143 1.2242875zm.064784 1.8042131c2.375406 0 4.405269-.8161835 6.089648-2.448575 1.684379-1.6323914 2.526556-3.6513717 2.526556-6.0570012 0-2.2337989-.712611-4.1346473-2.137855-5.7026022-1.425244-1.567955-3.282352-2.4807918-5.57138-2.7385378l-2.137855-.2577448c-2.677731-.3007037-4.9235367-1.4283256-6.7374835-3.3828996-1.8139469-1.954574-2.7209067-4.2635141-2.7209067-6.9268897 0-2.9211216 1.0473227-5.4018898 3.1419994-7.4423792 2.0946768-2.0404893 4.6535988-3.0607187 7.6768438-3.0607187 2.634542 0 4.912738.8054442 6.834658 2.4163569 1.92192 1.6109126 3.05562 3.7050676 3.401133 6.2825279.086379.4295767.129567 1.030975.129567 1.8042131h-.971752l-.129567-1.9975217c-.431892-2.2337988-1.543997-4.0487332-3.33635-5.4448575-1.792352-1.3961243-3.8762-2.0941759-6.251607-2.0941759-2.634541 0-4.901941.923576-6.8022662 2.7707558-1.9003252 1.8471799-2.8504736 4.0809452-2.8504736 6.7013631 0 2.4485872.8205827 4.57496 2.4617727 6.3791822 1.6411901 1.8042221 3.6926471 2.8351908 6.1544321 3.0929368l2.332205.2577447c2.461785.2147884 4.48085 1.2135392 6.057257 2.9962825 1.576406 1.7827434 2.364597 3.8983769 2.364597 6.3469641 0 2.6204179-.939351 4.8649225-2.818082 6.7335812-1.87873 1.8686586-4.135333 2.8029739-6.769875 2.8029739-2.332217 0-4.437659-.7624872-6.31639-2.2874845-1.8787306-1.5249973-2.9476476-3.2540176-3.2067828-5.1871127-.0431892-.2147884-.0647835-.5369661-.0647835-.9665428 0-.386619.0215943-.7087967.0647835-.9665427h.9069689c-.0431893.2147883-.0647835.5154875-.0647835.9021065 0 .3866171.0539857 1.0631922.1619587 2.0297398.107973.9665476 1.0473242 2.115648 2.8180817 3.4473358 1.770758 1.3316878 3.692649 1.9975217 5.765731 1.9975217zm-.194351 1.9330855c2.850488 0 5.301439-1.0202294 7.352927-3.0607187 2.051487-2.0404893 3.077215-4.4783006 3.077215-7.3135068 0-2.6633756-.809785-4.9723157-2.42938-6.9268897-1.619596-1.954574-3.725038-3.082196-6.316391-3.3828997l-2.720906-.2577447c-2.20265-.257746-4.038164-1.1813221-5.5065972-2.7707559-1.4684332-1.5894338-2.2026387-3.5010214-2.2026387-5.7348203 0-2.4056295.8313798-4.478306 2.4941644-6.2180917 1.6627845-1.7397856 3.7034445-2.6096654 6.1220395-2.6096654 2.332218 0 4.405269.7732264 6.219216 2.3197026 1.813946 1.5464761 2.720906 3.3936282 2.720906 5.5415117v.9665428h-1.166103l-.064783-1.3531599c-.302325-1.8901374-1.144502-3.4151119-2.526556-4.574969-1.382055-1.1598571-3.066409-1.7397769-5.053113-1.7397769-2.073082 0-3.865407.7517479-5.377029 2.2552664-1.5116227 1.5035185-2.2674226 3.3077136-2.2674226 5.4126394 0 1.9760528.6046399 3.6513769 1.8139376 5.0260223 1.209298 1.3746455 2.785681 2.1693504 4.729195 2.3841388l2.850474.3221809c2.850488.3007037 5.215061 1.5464575 7.093792 3.7372986 1.878731 2.1908412 2.818082 4.7682628 2.818082 7.7323421 0 3.0929522-1.112106 5.7670271-3.33635 8.0223048-2.224244 2.2552777-4.891138 3.3828996-8.000761 3.3828996-2.980056 0-5.614558-.923576-7.9035861-2.7707559-2.2890281-1.8471798-3.5630907-4.1024237-3.8222259-6.7657992-.0863785-.6014074-.129567-1.0094992-.129567-1.2242875.0431892-.3007037.0647835-.5369674.0647835-.708798h1.1661028v1.8686493c.3023245 2.3197142 1.4576185 4.3064766 3.4659168 5.9603469 2.0082979 1.6538704 4.2864949 2.4807931 6.8346579 2.4807931zm.453485-45.1053284c-4.448489 0-8.2814737 1.4927567-11.4990698 4.4783148-3.2175962 2.9855581-4.8263701 6.6906016-4.8263701 11.1152416 0 4.2098517 1.4468168 7.8611989 4.3404939 10.9541512 2.893677 3.0929523 6.370356 4.6394052 10.430142 4.6394052l1.101319.1288724c.993352 0 1.824732.3114384 2.494165.9343246.669433.6228862 1.004144 1.406852 1.004144 2.3519207 0 .9450688-.323914 1.7612523-.971752 2.448575-.647839.6873227-1.425233 1.0309789-2.332206 1.0309789-.820595 0-1.565598-.2255244-2.235031-.6765799-.669432-.4510555-1.068927-1.0417147-1.198494-1.771995l-.064784-.8376704h.583052c0 .4295767.064783.8484077.19435 1.2565055.129568.4080979.421091.7517541.874577 1.030979.453487.2792248 1.025736.4188352 1.716763.4188352.734216 0 1.382045-.2792207 1.943505-.8376704.561459-.5584497.842185-1.2242836.842185-1.9975217 0-.7732381-.259131-1.439072-.777402-1.9975217-.51827-.5584497-1.187693-.8376704-2.008288-.8376704l-1.619587-.1933085c-4.232543-.3866191-7.7740051-2.1049001-10.6244929-5.1548947-2.8504879-3.0499946-4.2757105-6.7013418-4.2757105-10.9541512 0-4.4675977 1.6411654-8.2692945 4.9235454-11.4052044 3.2823799-3.13591 7.190945-4.7038414 11.725812-4.7038414 4.232542 0 7.860382 1.3746248 10.883626 4.1239157 3.023245 2.7492909 4.772382 6.2073315 5.247463 10.3742255l.064784 1.739777h-.518268l-.129567-1.5464684c-.475082-4.038021-2.137841-7.3994083-4.988329-10.0842627-2.850488-2.6848544-6.283979-4.0272615-10.300575-4.0272615zm71.326624 25.1301116c0 7.0880156-2.515734 13.1986525-7.547277 18.3320941-5.031543 5.1334415-11.067145 7.7001235-18.106986 7.7001235-7.212598 0-13.399359-2.523725-18.56047-7.5712511-5.161111-5.0475263-7.741627-11.1366847-7.741627-18.267658 0-7.0021003 2.504936-13.0160839 7.514885-18.0421313 5.009948-5.0260475 11.056347-7.5390335 18.139377-7.5390335 7.12622 0 13.291387 2.4807683 18.495687 7.4423792s7.806411 10.9433768 7.806411 17.9454771zm-1.749155.1933085c0-6.6154812-2.407762-12.2428516-7.223359-16.88228-4.815597-4.6394284-10.592067-6.9591078-17.329584-6.9591078-6.607949 0-12.265651 2.3411579-16.973274 7.0235439-4.707624 4.6823861-7.061401 10.3097565-7.061401 16.8822801 0 6.6154812 2.418559 12.2858087 7.255751 17.0111524 4.837192 4.7253435 10.602865 7.0879805 17.297192 7.0879805 6.56476 0 12.211665-2.373376 16.940883-7.1201986 4.729219-4.7468226 7.093792-10.4278893 7.093792-17.0433705zm-.842185-.1288724c0 6.4006929-2.267399 11.8991923-6.802267 16.495663-4.534867 4.5964707-9.976625 6.8946715-16.325439 6.8946715-6.435193 0-11.984923-2.2767223-16.649358-6.8302353-4.664434-4.5535131-6.996617-10.0305339-6.996617-16.4312268 0-6.3577352 2.256603-11.7810597 6.769875-16.2701363 4.513273-4.4890766 9.965829-6.7335812 16.357832-6.7335812 6.435192 0 11.984922 2.2337654 16.649357 6.7013631 4.664435 4.4675977 6.996617 9.8587045 6.996617 16.173482zm-1.360453 0c0-5.9711161-2.19182-11.072263-6.575525-15.3035935-4.383704-4.2313305-9.620318-6.3469641-15.709996-6.3469641-6.0033 0-11.142739 2.1263728-15.418471 6.3791822-4.275732 4.2528093-6.413566 9.386174-6.413566 15.4002478 0 6.0140739 2.202617 11.168917 6.607916 15.464684 4.4053 4.2957671 9.65271 6.4436181 15.742389 6.4436181 6.0033 0 11.131942-2.1585903 15.386079-6.4758362 4.254137-4.3172458 6.381174-9.5043067 6.381174-15.5613383zm-.842186 0c0 5.9281586-1.965079 10.9433913-5.895297 15.0458489-3.930218 4.1024575-8.940092 6.1536556-15.02977 6.1536556-5.830544 0-10.862011-2.0619374-15.094554-6.1858737-4.232542-4.1239364-6.348782-9.0854729-6.348782-14.8847584 0-5.7133702 2.051457-10.6104711 6.154432-14.6914498 4.102975-4.0809787 9.026471-6.1214374 14.770636-6.1214374 5.830543 0 10.862011 2.0189802 15.094553 6.0570012 4.232543 4.038021 6.348782 8.9136435 6.348782 14.6270136zm-1.166103 0c0-5.4126664-1.997471-10.041286-5.992472-13.8859975-3.995002-3.8447115-8.756541-5.7670384-14.28476-5.7670384-5.441841 0-10.117003 1.9438054-14.025626 5.8314746-3.908624 3.8876692-5.862906 8.5377672-5.862906 13.9504337 0 5.4985818 2.008268 10.2023762 6.024865 14.1115242 4.016596 3.909148 8.788932 5.8636927 14.317151 5.8636927 5.571408 0 10.268164-1.965284 14.09041-5.8959108 3.822245-3.9306269 5.733338-8.666639 5.733338-14.2081785zm-.971752 0c0 5.3697088-1.770731 9.9124143-5.312246 13.6282528-3.541515 3.7158385-8.05472 5.5737299-13.53975 5.5737299-5.312273 0-9.857869-1.8578914-13.636925-5.5737299-3.779056-3.7158385-5.668555-8.1941084-5.668555-13.4349442 0-5.1549205 1.835514-9.5794941 5.506597-13.2738538 3.671082-3.6943596 8.119504-5.5415118 13.345399-5.5415118 5.312273 0 9.857869 1.7827166 13.636925 5.3482033 3.779056 3.5654866 5.668555 7.9900603 5.668555 13.2738537zm-.906969 0c0-4.9401321-1.792325-9.1284421-5.37703-12.5650557-3.584704-3.4366137-7.925154-5.1548947-13.021481-5.1548947-4.966759 0-9.199239 1.7397596-12.697565 5.2193309-3.498326 3.4795713-5.247462 7.6893598-5.247462 12.6294919 0 4.9830898 1.803122 9.2465746 5.409421 12.7905824 3.606299 3.5440078 7.935953 5.3159851 12.98909 5.3159851 5.225895 0 9.523157-1.761238 12.891915-5.283767 3.368758-3.522529 5.053112-7.8397101 5.053112-12.9516729zm-1.036536.0644362c0 4.7683014-1.587179 8.8170011-4.761586 12.1462206-3.174407 3.3292194-7.223335 4.9938042-12.146905 4.9938042-4.794002 0-8.886118-1.6645848-12.276471-4.9938042-3.390353-3.3292195-5.085504-7.3564406-5.085504-12.0817844 0-4.5964707 1.662759-8.5699956 4.988328-11.9206939 3.32557-3.3506983 7.298917-5.0260223 11.920163-5.0260223 4.794002 0 8.886118 1.6431062 12.276471 4.929368 3.390353 3.2862618 5.085504 7.270526 5.085504 11.952912zm-.842185.0644362c0-4.4675977-1.619571-8.2692945-4.858762-11.4052045-3.239191-3.1359099-7.126161-4.7038413-11.661028-4.7038413-4.448489 0-8.249082 1.5679314-11.401895 4.7038413-3.152812 3.13591-4.729195 6.9376068-4.729195 11.4052045 0 4.5105554 1.630369 8.3659485 4.891154 11.5662949 3.260785 3.2003465 7.158553 4.8004957 11.69342 4.8004957 4.621246 0 8.454231-1.6001492 11.49907-4.8004957 3.044839-3.2003464 4.567236-7.0557395 4.567236-11.5662949zm-1.230886-.0644362c0 4.2098517-1.382034 7.7752849-4.146144 10.6964065-2.764109 2.9211216-6.34876 4.3816604-10.754059 4.3816604-4.146164 0-7.720018-1.4712781-10.721668-4.4138785-3.00165-2.9426004-4.502453-6.4543373-4.502453-10.535316s1.446817-7.5819763 4.340494-10.5030979c2.893677-2.9211216 6.391951-4.3816605 10.494926-4.3816605 4.146164 0 7.730815 1.4390604 10.754059 4.3172243 3.023245 2.8781639 4.534845 6.357683 4.534845 10.4386617zm-.647835.0644362c0-3.9521057-1.43602-7.313493-4.308102-10.0842627-2.872083-2.7707697-6.294776-4.1561338-10.268184-4.1561338-3.887029 0-7.223345 1.4068426-10.009049 4.22057-2.785704 2.8137274-4.178535 6.1536362-4.178535 10.0198265 0 3.9521057 1.436019 7.3349715 4.308102 10.1486989 2.872082 2.8137274 6.294776 4.22057 10.268183 4.22057 4.102975 0 7.493277-1.3961033 10.171008-4.1883519 2.677731-2.7922486 4.016577-6.1858536 4.016577-10.180917zm-1.425237-.0644362c0 3.6084443-1.241671 6.690611-3.725051 9.2465923-2.483379 2.5559814-5.517376 3.833953-9.10208 3.833953-3.584705 0-6.672687-1.2672323-9.26404-3.8017349-2.591352-2.5345025-3.887009-5.6059299-3.887009-9.2143742 0-3.4795713 1.252468-6.4865631 3.757442-9.0210657 2.504975-2.5345025 5.50658-3.8017348 9.004906-3.8017348 3.671083 0 6.791456 1.2350145 9.361214 3.7050806 2.569758 2.470066 3.854618 5.4877971 3.854618 9.0532837zm-.518268 0c0-3.4366136-1.230874-6.3362129-3.692659-8.6988847-2.461785-2.3626719-5.441796-3.5439901-8.940122-3.5439901-3.368758 0-6.251595 1.213536-8.648596 3.6406443-2.397001 2.4271084-3.595484 5.3159684-3.595484 8.6666667 0 3.4366136 1.220077 6.3684307 3.660268 8.795539 2.44019 2.4271084 5.409404 3.6406444 8.90773 3.6406444 3.455136 0 6.370364-1.2242752 8.745771-3.6728624 2.375407-2.4485873 3.563092-5.3911435 3.563092-8.8277572zm46.125846.5154895L183.842591 4.1883519V50.453532h-1.749154V.3866171l26.431664 22.2949195V1.4820322h1.749155v24.936803zm9.84709 21.2639408l-26.431664-22.6171007V50.453532h-.712618V23.6480793l26.431664 22.6815366V1.4820322h.712618V47.682776zm-1.943504-4.0594798l-26.431665-22.3593557V50.453532h-.842185V19.2664188l26.431664 22.4237919V1.4820322h.842186v42.141264zm-1.813938-4.1239158l-26.431664-22.488228V50.453532h-.971753V15.0780669l26.431665 22.3593557V1.4820322h.971752v38.0173482zm-1.943505-4.1883519L188.053518 13.016109v37.437423h-1.230886V10.5030979l26.431664 22.3593556V1.4820322h1.166103v33.8289963zm-1.878721-4.1239157L186.110014 8.8921933V50.453532h-1.490021V5.7992565l26.431665 22.2949195V1.4820322h1.49002v29.7050806zM222.129635 52L195.69797 29.3828996V50.453532h-.583051V28.2874845l26.431664 22.5526645V1.4820322h.583052V52zm51.010521-18.1710037c0 4.4675977-1.619571 8.33373-4.858762 11.598513-3.239191 3.2647827-7.126162 4.8971497-11.661029 4.8971497h-17.81546V15.464684c0-4.2528094 1.543991-7.8934173 4.63202-10.9219331C246.524953 1.5142352 250.206778 0 254.48251 0c4.318921 0 8.02234 1.4605389 11.110369 4.3816605 3.088028 2.9211216 4.63202 6.5080332 4.63202 10.7608426 0 1.6323915-.107972 2.9318415-.323918 3.8983891-.215946.9665476-.712614 2.158605-1.49002 3.5762082 1.295676 1.2887301 2.407782 2.9318363 3.33635 4.929368.928568 1.9975317 1.392845 4.0916867 1.392845 6.2825279zm-4.664412-18.5576208c0-3.7373174-1.371237-6.9483551-4.113751-9.6332095-2.742515-2.6848544-6.035643-4.0272614-9.879483-4.0272614s-7.12617 1.3746248-9.847091 4.1239157c-2.72092 2.7492909-4.081359 6.0569819-4.081359 9.9231723v2.1908302h.712618V15.464684c0-3.6084443 1.295657-6.6798717 3.887009-9.2143742 2.591353-2.5345026 5.722524-3.8017348 9.393607-3.8017348 3.584704 0 6.694281 1.2457537 9.328822 3.7372986 2.634542 2.4915449 3.951793 5.5200152 3.951793 9.0855019 0 1.8901375-.410291 3.7372896-1.230886 5.5415117l.583051.5799257c.431893-.9880264.755807-1.976038.971753-2.9640644.215946-.9880265.323917-2.0404736.323917-3.157373zm-2.137855 0c0-3.1788676-1.187685-5.9066388-3.563092-8.1833953-2.375407-2.2767566-5.204257-3.4151177-8.486637-3.4151177s-6.057245 1.2135359-8.324679 3.6406443c-2.267433 2.4271084-3.401133 5.2944899-3.401133 8.6022305v1.9330855h.971752v-2.1908302c0-2.9640793 1.047323-5.5307616 3.141999-7.700124 2.094677-2.1693623 4.632005-3.2540272 7.612061-3.2540272 3.023244 0 5.636152.9880116 7.838802 2.9640644 2.20265 1.9760529 3.303958 4.4031248 3.303958 7.2812887 0 1.2457725-.032391 2.104913-.097175 2.5774474-.064784.4725344-.26993 1.1383683-.615443 1.9975217l.647835.5799256c.647838-1.5894338.971752-3.2003223.971752-4.8327137zm-1.943505.0644361c0-2.6633755-.993337-4.9186194-2.98004-6.7657992-1.986704-1.8471798-4.340481-2.7707559-7.061401-2.7707559-2.677731 0-4.966725.9235761-6.86705 2.7707559-1.900325 1.8471798-2.850474 4.1239022-2.850474 6.8302354v2.448575h1.036536V15.464684c0-2.4056295.852974-4.478306 2.558948-6.2180917 1.705974-1.7397856 3.746634-2.6096654 6.12204-2.6096654 2.461785 0 4.588822.8484013 6.381174 2.5452292 1.792352 1.696828 2.688515 3.7265475 2.688515 6.0892194 0 1.2887301-.021594 2.040478-.064784 2.2552664-.215946.5584497-.3887.98802-.518267 1.2887237l.777401.2577447c.518271-1.2028148.777402-2.4485685.777402-3.7372987zm-1.813937-.1288723c0-2.1478835-.852975-3.9628179-2.558948-5.4448575-1.705974-1.4820396-3.703445-2.2230483-5.992473-2.2230483-2.029893 0-3.789827.7947049-5.279855 2.3841387-1.490028 1.5894338-2.23503 3.3077149-2.23503 5.1548947v2.7707559h1.101319V15.464684c0-1.8901375.637031-3.4902867 1.911113-4.8004956 1.274082-1.310209 2.861261-1.9653036 4.761587-1.9653036 1.943514 0 3.627868.6228768 5.053112 1.8686493 1.425244 1.2457724 2.137855 2.7922254 2.137855 4.6394052 0 1.1168994-.215943 2.1263895-.647835 3.0285006l1.166103.2577447c.388703-.9880264.583052-2.0834305.583052-3.2862453zm-2.008289 0c0-1.6323915-.615437-2.9855378-1.846329-4.0594796-1.230893-1.0739417-2.710101-1.6109046-4.437669-1.6109046-1.554812 0-2.904454.5691806-4.048969 1.7075589-1.144514 1.1383783-1.716762 2.5022638-1.716762 4.0916976v2.448575h1.230886v-2.1908302c0-1.2887301.442683-2.4163521 1.328062-3.3828996.885379-.9665476 1.97589-1.4498142 3.271566-1.4498142 1.338866 0 2.504957.418831 3.498309 1.2565056.993352.8376746 1.49002 1.900861 1.49002 3.1895911 0 .6014074-.021594 1.0631954-.064784 1.3853779-.043189.3221826-.194349.719535-.453484 1.1920694l1.230886.2577448c.172757-.3866191.302323-.8376679.388701-1.3531599.086379-.515492.129567-1.0094978.129567-1.4820322zm-1.813937.1288723c0-1.0739417-.410292-1.9975178-1.230887-2.7707558-.820595-.7732381-1.813932-1.1598513-2.98004-1.1598513-1.12292 0-2.094662.4080917-2.915257 1.2242874-.820595.8161958-1.230887 1.7827289-1.230887 2.8996283v2.2552664h1.29567v-1.9330855c0-.9021111.259131-1.653859.777402-2.2552664.51827-.6014074 1.187693-.9021066 2.008288-.9021066.734217 0 1.382045.2470029 1.943505.7410161.56146.4940132.86378 1.1061509.906969 1.8364313 0 1.0739417-.367103 1.8686467-1.10132 2.3841388h1.878722c.431892-.6443651.647835-1.4175916.647835-2.3197027zm-2.008289 0c0-.6014073-.237537-1.0954131-.712618-1.4820322-.475081-.386619-1.036533-.5799256-1.684371-.5799256-.604649 0-1.112114.2470029-1.522412.7410161-.410297.4940132-.615443 1.0846723-.615443 1.771995v1.9975217h2.073072c.691027 0 1.295667-.2362636 1.813937-.708798.518271-.4725344.734214-1.0524542.647835-1.739777zm14.576286 18.2998761c0-3.9521056-1.425223-7.3027537-4.275711-10.0520446-2.850487-2.7492909-6.283978-4.1239157-10.300575-4.1239157H240.55406l-.064784 29.1895906 16.131089-.064436c4.102975 0 7.579655-1.460539 10.430142-4.3816602 2.850488-2.9211216 4.275711-6.4435977 4.275711-10.5675341zm-.712619.1288724c0 3.8661903-1.360439 7.1738813-4.081359 9.9231722-2.720921 2.7492909-6.04644 4.1239157-9.976658 4.1239157h-15.224121V20.2329616h15.548038c3.757462 0 6.985807 1.3209285 9.685132 3.9628253 2.699326 2.6418967 4.048968 5.8314559 4.048968 9.5687732zm-1.49002-.1288724c0-3.3077406-1.187685-6.1214258-3.563092-8.44114-2.375406-2.3197142-5.225852-3.4795539-8.551421-3.4795539h-14.187584v24.6146221h13.7341c3.584704 0 6.575512-1.2350145 8.972513-3.7050806 2.397002-2.470066 3.595484-5.4663186 3.595484-8.9888476zm-.712618.1288724c0 3.2647829-1.144497 6.0569896-3.433525 8.3767038s-5.074691 3.4795539-8.357071 3.4795539H243.5341v-23.197026h13.410183c3.109623 0 5.798111 1.1061434 8.065544 3.3184635 2.267434 2.21232 3.401134 4.8863949 3.401134 8.0223048zm-1.166103 0c0-2.7922486-.993337-5.1763635-2.980041-7.1524164-1.986703-1.9760528-4.405263-2.9640644-7.255751-2.9640644h-12.308863v20.8128872h11.920162c2.936867 0 5.441803-1.0524471 7.514885-3.1573729 2.073082-2.1049259 3.109608-4.6179119 3.109608-7.5390335zm-.906969-.1288724c0 2.7492909-.928554 5.0904489-2.78569 7.023544-1.857136 1.9330952-4.232507 2.8996283-7.126184 2.8996283h-10.75406V24.5501859h11.077977c2.591353 0 4.837158.880619 6.737483 2.6418835 1.900326 1.7612645 2.850474 3.9091158 2.850474 6.4436183zm-.971752.0644362c0-2.2767565-.852974-4.1990834-2.558948-5.7670384-1.705974-1.567955-3.725039-2.3519207-6.057257-2.3519207h-10.171008v17.0111524h9.847091c2.591352 0 4.729186-.8591405 6.413566-2.5774473 1.684379-1.7183068 2.526556-3.8232011 2.526556-6.314746zm-.906969.1288724c0 2.1908412-.777394 4.0379933-2.332206 5.5415118-1.554811 1.5035184-3.433514 2.2552664-5.636164 2.2552664h-8.875338V26.5477076h9.004905c2.116272 0 3.951786.6980516 5.506597 2.0941759 1.554812 1.3961243 2.332206 3.1251446 2.332206 5.1871128zm-.906969 0c0-1.7612645-.691017-3.2647604-2.073072-4.5105329-1.382055-1.2457724-3.001626-1.8686493-4.858762-1.8686493h-8.16272v13.33829h7.903586c1.986704 0 3.681855-.6765732 5.085504-2.0297398 1.40365-1.3531666 2.105464-2.9962729 2.105464-4.929368zm-1.360453.0644362c0 1.5894338-.52906 2.9318408-1.587196 4.0272614-1.058136 1.0954206-2.450967 1.6431227-4.178535 1.6431227h-6.737483V28.5452292h6.802266c1.511623 0 2.839671.5262236 3.984185 1.5786865 1.144514 1.052463 1.716763 2.308956 1.716763 3.7695168zm-.583052.0644361c0-1.3316877-.539857-2.4485704-1.619587-3.3506815-1.07973-.9021111-2.310604-1.3531598-3.692659-1.3531598h-5.895298v9.6009913h5.895298c1.554811 0 2.828874-.4725273 3.822226-1.417596.993352-.9450688 1.49002-2.1049085 1.49002-3.479554zm-1.360453-.0644361c0 .9450687-.291523 1.7719915-.874577 2.480793-.583055.7088016-1.328057 1.0631971-2.235031 1.0631971h-5.312246v-6.7657993h5.37703c.820595 0 1.533206.3221777 2.137855.9665427.604649.6443651.906969 1.3961131.906969 2.2552665zm-.583052 0c0-.6873228-.22674-1.2994604-.680226-1.8364313-.453487-.5369708-1.004141-.8054523-1.651979-.8054523h-4.923546v5.605948h4.793979c.691027 0 1.274073-.3006992 1.749154-.9021066.475081-.6014074.712618-1.2887198.712618-2.0619578zm30.940596-32.6047088v34.795539c0 .6443651.259131 1.1598494.777402 1.5464684.518268.3866171 1.12291.5799257 1.813937.5799257.777406 0 1.468423-.2362637 2.073072-.7087981.604649-.4725343.906969-1.0954112.906969-1.8686493V1.2887237h.647835v34.2800495c0 .9450688-.356306 1.7290345-1.068928 2.3519207-.712622.6228862-1.565596.9343247-2.558948.9343247-.863784 0-1.619584-.3006992-2.267422-.9021066-.647838-.6014074-.971752-1.3316768-.971752-2.1908302V1.2887237h.647835zm-2.137855 0v34.2800495c0 1.2887301.475074 2.3841343 1.425236 3.2862454.950163.9021111 2.051471 1.3531598 3.303958 1.3531598 1.338866 0 2.515754-.4403095 3.530701-1.3209417 1.014946-.8806323 1.522412-1.9867757 1.522412-3.3184635V1.2887237h.647835v34.1511772c0 1.4605608-.561452 2.727793-1.684371 3.8017348-1.12292 1.0739417-2.440171 1.6109046-3.951793 1.6109046-1.468433 0-2.742496-.4940058-3.822226-1.4820322-1.07973-.9880265-1.619587-2.1908232-1.619587-3.6084263V1.2887237h.647835zm-1.878722 0v34.9888476c0 1.6753491.669423 3.0714524 2.008289 4.1883519 1.338865 1.1168994 2.872059 1.6753407 4.599627 1.6753407 1.900326 0 3.530694-.6336161 4.891154-1.9008674 1.36046-1.2672512 2.04068-2.8244434 2.04068-4.6716233l.064784-34.2800495h.777401v34.1511772c0 2.0619681-.766597 3.8339455-2.299814 5.3159851-1.533216 1.4820396-3.357933 2.2230483-5.474205 2.2230483-2.029892 0-3.779029-.6443554-5.247462-1.9330855-1.468433-1.2887301-2.202639-2.8996186-2.202639-4.8327137V1.2887237h.842185zm-1.813937 0v34.9888476c0 2.1908411.831379 4.027254 2.494164 5.5092936 1.662785 1.4820397 3.638661 2.2230484 5.927689 2.2230484 2.461785 0 4.545634-.8269228 6.251607-2.4807931 1.705974-1.6538703 2.558948-3.6835898 2.558948-6.0892193V1.2887237h.971753l-.064784 34.1511772c0 2.5774602-.950148 4.8112255-2.850473 6.701363-1.900326 1.8901375-4.189319 2.8351921-6.867051 2.8351921-2.504974 0-4.696793-.8484013-6.575524-2.5452292-1.878731-1.696828-2.818082-3.7695045-2.818082-6.2180917V1.2887237h.971753zm-1.943505 0v34.9888476c0 2.6633755 1.025728 4.9293586 3.077216 6.7980173 2.051487 1.8686587 4.45925 2.802974 7.223359 2.802974 2.980055 0 5.528181-1.0094901 7.644452-3.0285006 2.116271-2.0190106 3.174391-4.4890395 3.174391-7.4101611V1.2887237h1.101319v34.086741c0 3.1788676-1.187685 5.9066387-3.563092 8.1833953-2.375406 2.2767565-5.161068 3.4151177-8.35707 3.4151177-3.066434 0-5.744125-1.0094901-8.033153-3.0285006-2.289028-2.0190105-3.433525-4.510518-3.433525-7.4745973V1.2887237h1.166103zm-1.878721 0v34.7311028c0 3.264783 1.187685 6.0355111 3.563092 8.3122677 2.375406 2.2767565 5.247446 3.4151178 8.616204 3.4151178 3.455137 0 6.42435-1.1920576 8.90773-3.5762083 2.48338-2.3841507 3.725051-5.2944892 3.725051-8.7311028V1.2887237h1.49002v34.1511772c0 3.780275-1.403628 7.0020519-4.210927 9.6654275-2.807299 2.6633756-6.132818 3.9950436-9.976657 3.9950436-3.714273 0-6.910226-1.288711-9.587957-3.8661713-2.677731-2.5774602-4.016577-5.7133231-4.016577-9.4076827V1.2887237h1.490021zm-2.267423 0v34.8599752c0 3.8232326 1.403629 7.0879666 4.210927 9.7942999 2.807299 2.7063332 6.176007 4.0594792 10.106225 4.0594792 4.102975 0 7.63364-1.428321 10.592101-4.2850059 2.958461-2.8566851 4.437669-6.2825079 4.437669-10.2775712V1.2887237h1.749154v34.2156134c0 4.42464-1.651962 8.2155975-4.955937 11.3729863-3.303974 3.1573886-7.223336 4.7360596-11.758203 4.7360596-4.4053 0-8.195096-1.492757-11.369503-4.478315-3.174407-2.9855579-4.761587-6.6261659-4.761587-10.9219329V1.2887237h1.749154zm76.742524 49.0359353h-1.813938l-9.004905-21.6505574c-1.036541-2.5345025-2.742489-4.607179-5.117896-6.2180917-2.375406-1.6109126-5.096286-2.4163569-8.16272-2.4163569-4.016596 0-7.460884 1.3638856-10.332966 4.0916977-2.872083 2.7278121-4.308103 6.0677208-4.308103 10.0198265V50.324659h-1.813937V1.2887237h1.749154v25.7100371l.777402-1.0309789V1.2887237h1.49002V23.905824l.647835-.7732342V1.2887237h1.230886v20.748451l.971753-.708798V1.2887237h.971752v19.330855l.971752-.5154895V1.2887237h.842186v18.4287484l1.230886-.4510533V1.2887237h.647835v17.6555142l1.49002-.3221809V1.2887237h.583052v17.1400248l1.878721-.1288724 8.16272-17.0111524h1.878721l-7.968369 16.9467162.712618.1288724 8.097937-17.0755886h1.49002l-8.033153 17.2688971.712618.1288724 8.292287-17.3977695h1.166103l-8.35707 17.7843866.842185.2577447 8.616204-18.0421313h.971753l-8.745772 18.4931846.971753.3221809 8.940122-18.8153655h.971752l-9.134472 19.3952912 1.036536.5154894 9.458389-19.9107806h.712619l-9.65274 20.4262701 1.036535.8376704L352.70724 1.2887237h.583051l-10.235792 21.8438661 1.684371 2.0619579c.647838.8591534 1.166101 1.7397724 1.554804 2.6418835l9.134472 22.4882278zm-2.656123 0h-1.49002l-8.616205-20.812887c-.863784-2.1049259-2.342992-3.8661639-4.437669-5.283767-2.094676-1.4176032-4.416062-2.1263941-6.964225-2.1263941-3.411948 0-6.316378 1.213536-8.71338 3.6406444-2.397001 2.4271083-3.595483 5.3374469-3.595483 8.7311028V50.324659h-1.490021V34.2156134c0-3.7373173 1.36044-6.9161373 4.08136-9.5365552 2.72092-2.6204179 5.981657-3.9306071 9.782307-3.9306071 2.980056 0 5.592964.7947049 7.838803 2.3841387 2.245839 1.5894338 3.908598 3.7158066 4.988329 6.3791822l8.616204 20.812887zm-2.396989 0h-1.230887l-8.616204-20.7484508c-.604649-1.4176031-1.792334-2.6955747-3.563092-3.8339529-1.770757-1.1383783-3.671054-1.7075589-5.700947-1.7075589-2.807299 0-5.247453 1.0094901-7.320535 3.0285006-2.073082 2.0190105-3.109607 4.4460825-3.109607 7.2812887V50.324659h-1.166103V34.4733581c0-3.1788676 1.1337-5.8958995 3.401133-8.1511772 2.267434-2.2552777 4.99911-3.3828996 8.195112-3.3828996 2.375406 0 4.545632.6550946 6.510741 1.9653036 1.965109 1.3102089 3.336346 2.9318367 4.113751 4.8649318l8.486638 20.5551423zm-2.202639 0h-.971752l-7.838803-18.9442377c-.691027-1.7183068-1.770741-3.0607139-3.239174-4.0272614-1.468433-.9665476-3.088004-1.4498142-4.858762-1.4498142-2.332217 0-4.329688.8054443-5.992473 2.4163569-1.662785 1.6109126-2.494164 3.5761966-2.494164 5.8959108V50.324659h-.971753V34.2156134c0-2.5774602.939351-4.7790078 2.818082-6.6047088 1.878731-1.825701 4.092145-2.7385378 6.640308-2.7385378 1.857136 0 3.61707.5584413 5.279854 1.6753408 1.662785 1.1168994 2.774891 2.3626531 3.33635 3.7372986l8.292287 20.0396528zm-2.202639 0h-.906968l-7.579669-18.4287482c-1.122919-2.7492909-3.217565-4.1239158-6.283999-4.1239158-1.813946 0-3.368735.6013984-4.664411 1.8042132-1.295676 1.2028147-1.943505 2.7063107-1.943505 4.5105328v16.237918h-.842185V34.1511772c0-1.9760528.745003-3.6835946 2.23503-5.1226766 1.490028-1.4390819 3.271556-2.1586121 5.344638-2.1586121 1.598001 0 3.023224.418831 4.275711 1.2565056 1.252487.8376745 2.159447 1.9438179 2.720906 3.3184634l7.644452 18.8798015zm-2.267422 0h-.647835l-7.255751-17.7199502c-.863784-2.0190105-2.396978-3.0285006-4.599628-3.0285006-1.295676 0-2.396984.4295702-3.303958 1.2887236-.906973.8591535-1.360453 1.9330791-1.360453 3.2218092v16.237918h-.712618V34.0223048c0-1.4176031.539857-2.6203998 1.619587-3.6084262 1.07973-.9880265 2.353793-1.4820323 3.822226-1.4820323 2.461785 0 4.167733 1.1383612 5.117896 3.4151178l7.320534 17.9776949zm-2.202638 0h-.583052l-6.86705-16.6889713c-.51827-1.4176031-1.446825-2.126394-2.78569-2.126394-.777406 0-1.425234.2792206-1.943505.8376704-.51827.5584497-.777402 1.2242836-.777402 1.9975216V50.324659h-.583051V34.2800496c0-.8591534.313117-1.6216407.93936-2.2874845.626244-.6658439 1.414435-.9987609 2.364598-.9987609 1.598001 0 2.699309.7732265 3.303958 2.3197026l6.931834 17.0111522zm31.78278 0h-.583051V1.2887237h.583051V50.324659zm-2.008288 0h-.712618V1.2887237h.712618V50.324659zm-1.878721 0h-.842186V1.2887237h.842186V50.324659zm-1.878721 0h-.906969V1.2887237h.906969V50.324659zm-1.943505 0h-1.166103V1.2887237h1.166103V50.324659zm-1.878721 0h-1.490021V1.2887237h1.490021V50.324659zm-2.267423 0h-1.68437V1.2887237h1.68437V50.324659z" fill="#A5AF45" fill-rule="nonzero" fill-opacity=".9"/></svg>